
<svg width="1200" height="1200" viewBox="0 0 1200 1200" fill="none" xmlns="http://www.w3.org/2000/svg">
  <rect width="1200" height="1200" fill="#171717"/>
  <path d="M808 42C948 94 1074 230 1137 396C1196 552 1170 763 1088 1200H720C634 1036 604 846 656 668C722 444 726 188 808 42Z" fill="#F05033" opacity=".18"/>
  
    <g transform="translate(92 92) scale(1.03125)">
      <rect width="128" height="128" rx="28" fill="#F05033"/>
      <path d="M64 23L96 37V65C96 84.5 83.5 98.5 64 110C44.5 98.5 32 84.5 32 65V37L64 23Z" fill="#FFFFFF"/>
      <path d="M52 45V83M52 64L78 50" stroke="#F05033" stroke-width="9.5" stroke-linecap="round" stroke-linejoin="round"/>
      <circle cx="52" cy="45" r="7.5" fill="#F05033"/>
      <circle cx="52" cy="83" r="7.5" fill="#F05033"/>
      <circle cx="78" cy="50" r="7.5" fill="#F05033"/>
    </g>
  <text x="256" y="174" fill="#FFFFFF" font-family="Inter, ui-sans-serif, system-ui, -apple-system, BlinkMacSystemFont, Segoe UI, sans-serif" font-size="64" font-weight="850" text-anchor="start" letter-spacing="0">GitRescue</text>
  <text x="96" y="394" fill="#FFFFFF" font-family="Inter, ui-sans-serif, system-ui, -apple-system, BlinkMacSystemFont, Segoe UI, sans-serif" font-size="70" font-weight="850" text-anchor="start" letter-spacing="0">GitRescue is live.</text>
  <text x="100" y="590" fill="#E7E5E4" font-family="Inter, ui-sans-serif, system-ui, -apple-system, BlinkMacSystemFont, Segoe UI, sans-serif" font-size="34" font-weight="650" text-anchor="start" letter-spacing="0">A VS Code/Cursor extension for common Git rescue moments.</text>
  <text x="128" y="720" fill="#F05033" font-family="Inter, ui-sans-serif, system-ui, -apple-system, BlinkMacSystemFont, Segoe UI, sans-serif" font-size="34" font-weight="900" text-anchor="start" letter-spacing="0">•</text><text x="168" y="720" fill="#D6D3D1" font-family="Inter, ui-sans-serif, system-ui, -apple-system, BlinkMacSystemFont, Segoe UI, sans-serif" font-size="31" font-weight="700" text-anchor="start" letter-spacing="0">Detached HEAD</text>
<text x="128" y="790" fill="#F05033" font-family="Inter, ui-sans-serif, system-ui, -apple-system, BlinkMacSystemFont, Segoe UI, sans-serif" font-size="34" font-weight="900" text-anchor="start" letter-spacing="0">•</text><text x="168" y="790" fill="#D6D3D1" font-family="Inter, ui-sans-serif, system-ui, -apple-system, BlinkMacSystemFont, Segoe UI, sans-serif" font-size="31" font-weight="700" text-anchor="start" letter-spacing="0">Merge conflicts and rebases</text>
<text x="128" y="860" fill="#F05033" font-family="Inter, ui-sans-serif, system-ui, -apple-system, BlinkMacSystemFont, Segoe UI, sans-serif" font-size="34" font-weight="900" text-anchor="start" letter-spacing="0">•</text><text x="168" y="860" fill="#D6D3D1" font-family="Inter, ui-sans-serif, system-ui, -apple-system, BlinkMacSystemFont, Segoe UI, sans-serif" font-size="31" font-weight="700" text-anchor="start" letter-spacing="0">Pasted Git errors explained plainly</text>
  <g transform="translate(94 1030)"><rect width="340" height="48" rx="24" fill="#F05033"/><text x="24" y="32" fill="#FFFFFF" font-family="Inter, ui-sans-serif, system-ui, -apple-system, BlinkMacSystemFont, Segoe UI, sans-serif" font-size="18" font-weight="800" text-anchor="start" letter-spacing="0">No AI-generated Git commands</text></g>
</svg>