
<svg width="1270" height="760" viewBox="0 0 1270 760" fill="none" xmlns="http://www.w3.org/2000/svg">
  <rect width="1270" height="760" fill="#FAFAF9"/>
  <rect x="42" y="42" width="1186" height="676" rx="34" fill="#171717"/>
  <path d="M898 80C1016 118 1124 224 1175 350C1222 468 1196 606 1136 718H808C746 630 732 512 770 400C812 276 828 156 898 80Z" fill="#F05033" opacity=".20"/>
  
    <g transform="translate(116 112) scale(1.015625)">
      <rect width="128" height="128" rx="28" fill="#F05033"/>
      <path d="M64 23L96 37V65C96 84.5 83.5 98.5 64 110C44.5 98.5 32 84.5 32 65V37L64 23Z" fill="#FFFFFF"/>
      <path d="M52 45V83M52 64L78 50" stroke="#F05033" stroke-width="9.5" stroke-linecap="round" stroke-linejoin="round"/>
      <circle cx="52" cy="45" r="7.5" fill="#F05033"/>
      <circle cx="52" cy="83" r="7.5" fill="#F05033"/>
      <circle cx="78" cy="50" r="7.5" fill="#F05033"/>
    </g>
  <text x="282" y="184" fill="#FFFFFF" font-family="Inter, ui-sans-serif, system-ui, -apple-system, BlinkMacSystemFont, Segoe UI, sans-serif" font-size="66" font-weight="850" text-anchor="start" letter-spacing="0">GitRescue</text>
  <text x="120" y="348" fill="#FFFFFF" font-family="Inter, ui-sans-serif, system-ui, -apple-system, BlinkMacSystemFont, Segoe UI, sans-serif" font-size="60" font-weight="850" text-anchor="start" letter-spacing="0">Git without the panic.</text>
  <text x="124" y="414" fill="#E7E5E4" font-family="Inter, ui-sans-serif, system-ui, -apple-system, BlinkMacSystemFont, Segoe UI, sans-serif" font-size="32" font-weight="700" text-anchor="start" letter-spacing="0">Plain-English Git fixes for VS Code and Cursor.</text>
  <text x="126" y="502" fill="#A8A29E" font-family="Inter, ui-sans-serif, system-ui, -apple-system, BlinkMacSystemFont, Segoe UI, sans-serif" font-size="24" font-weight="600" text-anchor="start" letter-spacing="0">Detects confusing repo states</text>
<text x="126" y="540" fill="#A8A29E" font-family="Inter, ui-sans-serif, system-ui, -apple-system, BlinkMacSystemFont, Segoe UI, sans-serif" font-size="24" font-weight="600" text-anchor="start" letter-spacing="0">Explains what happened</text>
<text x="126" y="578" fill="#A8A29E" font-family="Inter, ui-sans-serif, system-ui, -apple-system, BlinkMacSystemFont, Segoe UI, sans-serif" font-size="24" font-weight="600" text-anchor="start" letter-spacing="0">Offers fixed, audited next steps</text>
</svg>