<svg width="1270" height="760" viewBox="0 0 1270 760" fill="none" xmlns="http://www.w3.org/2000/svg" role="img" aria-labelledby="title desc">
  <title id="title">GitRescue Product Hunt card</title>
  <desc id="desc">Product Hunt launch card for GitRescue.</desc>
  <rect width="1270" height="760" rx="0" fill="#FAFAF9"/>
  <rect x="58" y="58" width="1154" height="644" rx="32" fill="#171717"/>
  <path d="M898 86C1018 121 1119 220 1170 345C1218 465 1195 596 1138 702H814C750 615 732 511 767 399C808 268 830 158 898 86Z" fill="#F05033" opacity=".22"/>
  <rect x="118" y="118" width="148" height="148" rx="30" fill="#F05033"/>
  <path d="M192 145L225 160V189C225 210 212 224 192 237C172 224 159 210 159 189V160L192 145Z" fill="white"/>
  <path d="M180 169V209M180 188L207 173" stroke="#F05033" stroke-width="9" stroke-linecap="round" stroke-linejoin="round"/>
  <circle cx="180" cy="169" r="7.5" fill="#F05033"/>
  <circle cx="180" cy="209" r="7.5" fill="#F05033"/>
  <circle cx="207" cy="173" r="7.5" fill="#F05033"/>
  <text x="300" y="198" fill="white" font-family="Inter, ui-sans-serif, system-ui, -apple-system, BlinkMacSystemFont, Segoe UI, sans-serif" font-size="70" font-weight="850" letter-spacing="0">GitRescue</text>
  <text x="122" y="391" fill="white" font-family="Inter, ui-sans-serif, system-ui, -apple-system, BlinkMacSystemFont, Segoe UI, sans-serif" font-size="64" font-weight="850" letter-spacing="0">Git without the panic.</text>
  <text x="124" y="461" fill="#E7E5E4" font-family="Inter, ui-sans-serif, system-ui, -apple-system, BlinkMacSystemFont, Segoe UI, sans-serif" font-size="38" font-weight="650" letter-spacing="0">Plain-English fixes for confusing Git states.</text>
  <text x="126" y="563" fill="#A8A29E" font-family="Inter, ui-sans-serif, system-ui, -apple-system, BlinkMacSystemFont, Segoe UI, sans-serif" font-size="27" font-weight="550" letter-spacing="0">Detached HEAD • merge conflicts • rebases • diverged branches • pasted errors</text>
  <rect x="124" y="612" width="350" height="56" rx="28" fill="#F05033"/>
  <text x="154" y="649" fill="white" font-family="Inter, ui-sans-serif, system-ui, -apple-system, BlinkMacSystemFont, Segoe UI, sans-serif" font-size="23" font-weight="800" letter-spacing="0">No AI-generated commands</text>
</svg>
